<svg xmlns="http://www.w3.org/2000/svg" width="639" height="280.204" viewBox="0 0 639 280.204">
  <g id="NOTEABLE_LOCKUP" data-name="NOTEABLE LOCKUP" transform="translate(-641 -393)">
    <g id="NOTEABLE_LOCKUP_001" data-name="NOTEABLE LOCKUP 001">
      <path id="NOTEABLE_TEXT" data-name="NOTEABLE TEXT" d="M51.211,11.884V-42.294H40.665V-6.456L18.123-42.294H4.98V11.884H15.525V-26.553L40.13,11.884ZM89.078-15.243c0-12.226,8.558-18.034,16.888-18.034,8.406,0,16.964,5.807,16.964,18.034S114.371,2.79,105.966,2.79C97.637,2.79,89.078-3.017,89.078-15.243Zm-10.927.076c0,17.422,13.143,28.2,27.815,28.2,14.748,0,27.891-10.774,27.891-28.2,0-17.5-13.143-28.273-27.891-28.273C91.294-43.44,78.151-32.666,78.151-15.167ZM203.016-32.284v-10.01H158.161v10.01h17.117V11.884H185.9V-32.284Zm60.073,44.167V1.95H239.706V-10.582h21.167v-9.4H239.706V-32.36h23.383v-9.934H229.161V11.884Zm67.652,0H342.2L321.571-42.294H309.345L288.56,11.884h11.156L304.225-.5h22.007ZM315.228-30.6l7.489,20.479H307.74Zm52.661-11.691V11.884h20.938c10.163,0,16.735-6.342,16.735-15.13,0-6.724-4.279-11.539-9.552-12.838A12.037,12.037,0,0,0,403.88-27.7c0-8.406-5.96-14.6-16.505-14.6ZM378.282-19.9V-33.43h7.412c5.12,0,7.794,2.6,7.794,6.724s-2.9,6.8-7.718,6.8Zm0,23V-11.193h8.711c5.273,0,8.023,2.98,8.023,7.259,0,4.356-3.057,7.03-8.176,7.03Zm88.4,8.788V1.8H442.533V-42.294H431.988V11.884Zm60.073,0V1.95H503.37V-10.582h21.167v-9.4H503.37V-32.36h23.383v-9.934H492.825V11.884Z" transform="translate(693.162 492.426)" fill="#f49b23"/>
      <path id="frame" d="M0,169V0H639V169Zm627.816-11.167V11.169H11.184V157.833Z" transform="translate(641 393)" fill="#f49b23"/>
    </g>
    <g id="Spotify_Logo" data-name="Spotify Logo" transform="translate(795.943 617.922)">
      <g id="Group_530" data-name="Group 530">
        <path id="Path_336" data-name="Path 336" d="M27.641,0A27.641,27.641,0,1,0,55.282,27.641,27.68,27.68,0,0,0,27.641,0m12.7,39.9a1.747,1.747,0,0,1-2.394.58c-6.529-3.99-14.655-4.861-24.3-2.684a1.708,1.708,0,1,1-.725-3.337c10.52-2.394,19.588-1.378,26.843,3.047a1.7,1.7,0,0,1,.58,2.394m3.41-7.545a2.216,2.216,0,0,1-2.974.725c-7.4-4.571-18.79-5.876-27.569-3.192a2.158,2.158,0,1,1-1.233-4.135c10.012-3.047,22.563-1.6,31.051,3.7a2.113,2.113,0,0,1,.725,2.9m.29-7.835c-8.924-5.3-23.651-5.8-32.139-3.192A2.571,2.571,0,1,1,10.447,16.4C20.241,13.422,36.492,14,46.721,20.1a2.525,2.525,0,0,1,.871,3.555,2.586,2.586,0,0,1-3.555.871" fill="#f49b23"/>
        <g id="Group_564" data-name="Group 564" transform="translate(63.671 12.192)">
          <g id="Group_755" data-name="Group 755">
            <path id="Path_503" data-name="Path 503" d="M204.551,55.8c-4.844-1.158-5.68-2.009-5.68-3.745,0-1.634,1.5-2.724,3.742-2.724a11.033,11.033,0,0,1,6.615,2.553.314.314,0,0,0,.234.068.225.225,0,0,0,.2-.136l2.372-3.4a.327.327,0,0,0-.067-.443A14.109,14.109,0,0,0,202.68,44.7c-5.212,0-8.853,3.2-8.853,7.762,0,4.9,3.141,6.639,8.586,7.967,4.61,1.089,5.412,2.009,5.412,3.609,0,1.8-1.57,2.928-4.109,2.928-2.806,0-5.112-.953-7.684-3.234a.314.314,0,0,0-.234-.068.2.2,0,0,0-.2.1l-2.639,3.2a.323.323,0,0,0,.033.443,15.634,15.634,0,0,0,10.658,4.154c5.613,0,9.254-3.132,9.254-7.967C212.836,59.51,210.464,57.263,204.551,55.8Z" transform="translate(-192.886 -42.629)" fill="#f49b23"/>
            <path id="Path_504" data-name="Path 504" d="M268.792,63a7.557,7.557,0,0,0-6.081,2.94V63.735a.3.3,0,0,0-.3-.3H258.1a.3.3,0,0,0-.3.3V88.324a.3.3,0,0,0,.3.3h4.31a.3.3,0,0,0,.3-.3V80.573a7.772,7.772,0,0,0,6.081,2.74c4.51,0,9.121-3.475,9.121-10.156C277.912,66.508,273.3,63,268.792,63Zm4.076,10.156c0,3.408-2.1,5.746-5.078,5.746s-5.178-2.472-5.178-5.746,2.238-5.746,5.178-5.746S272.868,69.816,272.868,73.156Z" transform="translate(-236.292 -55.033)" fill="#f49b23"/>
            <path id="Path_505" data-name="Path 505" d="M332.39,63a10.176,10.176,0,1,0,10.357,10.156A10.218,10.218,0,0,0,332.39,63Zm0,15.97a5.508,5.508,0,0,1-5.446-5.78,5.378,5.378,0,0,1,5.379-5.713A5.543,5.543,0,0,1,337.8,73.29,5.376,5.376,0,0,1,332.39,78.97Z" transform="translate(-279.223 -54.946)" fill="#f49b23"/>
            <path id="Path_506" data-name="Path 506" d="M397.427,54.049h-4.744V49.107a.3.3,0,0,0-.3-.307h-4.31a.3.3,0,0,0-.3.307v4.976H385.7a.3.3,0,0,0-.3.307v3.783a.3.3,0,0,0,.3.307h2.071v9.815c0,3.953,1.938,5.964,5.746,5.964a7.935,7.935,0,0,0,4.042-1.022.348.348,0,0,0,.167-.273V69.351a.423.423,0,0,0-.134-.273.247.247,0,0,0-.3,0,5.179,5.179,0,0,1-2.539.613c-1.4,0-2-.648-2-2.079v-9.1h4.744a.3.3,0,0,0,.3-.307V54.389C397.728,54.219,397.594,54.049,397.427,54.049Z" transform="translate(-321.574 -45.359)" fill="#f49b23"/>
            <path id="Path_507" data-name="Path 507" d="M456.417,49.4v-.6c0-1.759.668-2.522,2.172-2.522a7.383,7.383,0,0,1,2.439.431.475.475,0,0,0,.3-.033.409.409,0,0,0,.134-.266V42.8a.319.319,0,0,0-.234-.3,11.655,11.655,0,0,0-3.608-.5c-4.009,0-6.114,2.224-6.114,6.471v.9h-2.071a.329.329,0,0,0-.334.3v3.717a.308.308,0,0,0,.334.3h2.071V68.417a.3.3,0,0,0,.3.3h4.31a.3.3,0,0,0,.3-.3v-14.7h4.042L466.64,68.45c-.7,1.56-1.4,1.858-2.339,1.858a5.041,5.041,0,0,1-2.372-.664.656.656,0,0,0-.267-.033.49.49,0,0,0-.2.166l-1.47,3.186a.306.306,0,0,0,.134.4,9.071,9.071,0,0,0,4.61,1.162c3.207,0,4.945-1.493,6.515-5.443l7.517-19.248a.32.32,0,0,0-.033-.3.3.3,0,0,0-.267-.133h-4.51a.338.338,0,0,0-.3.2l-4.611,13.076L464.1,49.6a.292.292,0,0,0-.3-.2Z" transform="translate(-364.287 -40.831)" fill="#f49b23"/>
            <path id="Path_508" data-name="Path 508" d="M433.111,64.2H428.8a.3.3,0,0,0-.3.3V83.377a.3.3,0,0,0,.3.3h4.31a.3.3,0,0,0,.3-.3V64.534A.33.33,0,0,0,433.111,64.2Z" transform="translate(-350.344 -55.744)" fill="#f49b23"/>
            <path id="Path_509" data-name="Path 509" d="M429.607,38.5a3.107,3.107,0,1,0,3.107,3.107A3.123,3.123,0,0,0,429.607,38.5Z" transform="translate(-349.014 -38.5)" fill="#f49b23"/>
          </g>
          <g id="Group_756" data-name="Group 756" transform="translate(110.973 21.789)">
            <path id="Path_510" data-name="Path 510" d="M543.24,70.214a3.03,3.03,0,0,1-3.04-3.04,3.065,3.065,0,0,1,3.073-3.074,3.03,3.03,0,0,1,3.04,3.04A3.109,3.109,0,0,1,543.24,70.214Zm0-5.813a2.756,2.756,0,1,0,2.74,2.74A2.717,2.717,0,0,0,543.24,64.4Zm.668,3.074.869,1.2h-.735l-.769-1.1h-.668v1.1H542V65.47h1.437c.735,0,1.236.367,1.236,1.036A1,1,0,0,1,543.909,67.474Zm-.5-1.437h-.8v1h.8c.4,0,.635-.2.635-.5C544.042,66.2,543.808,66.038,543.407,66.038Z" transform="translate(-540.2 -64.1)" fill="#f49b23"/>
          </g>
        </g>
      </g>
    </g>
    <path id="Path_545" data-name="Path 545" d="M11.807-.258V-2.4H6.543V-6.2c0-3.008,1.7-4,3.6-4a4.46,4.46,0,0,1,1.781.317v-2.138a5.224,5.224,0,0,0-2.137-.4c-3.166,0-5.62,2.1-5.62,6.1V-2.4H.289V-.258H4.168V16.487H6.543V-.258ZM20.792,17c5.264,0,9.381-4.038,9.381-9.936,0-5.938-4.116-9.936-9.381-9.936-5.3,0-9.381,4-9.381,9.936C11.411,12.964,15.528,17,20.792,17ZM13.826,7.066c0-4.948,3.246-7.8,6.966-7.8s6.966,2.85,6.966,7.8c0,4.909-3.246,7.8-6.966,7.8S13.826,11.974,13.826,7.066Zm28.657-9.5a4.475,4.475,0,0,0-1.464-.2A6.014,6.014,0,0,0,35.2,1.128V-2.4H32.864V16.487h2.375V6.234c0-4.315,2.375-6.373,5.581-6.373a6.594,6.594,0,0,1,1.662.2Z" transform="translate(982.582 641.137)" fill="#f49b23"/>
    <path id="Path_544" data-name="Path 544" d="M19.115-8.485h-2.3v3.206c0,1.94-.792,2.771-2.652,2.771H12.743V-.37h4V11.267c0,3.444,1.9,5.3,4.948,5.3a6.236,6.236,0,0,0,2.335-.356v-2.1a4.648,4.648,0,0,1-1.7.317c-2.137,0-3.206-1.108-3.206-3.4V-.37h4.908V-2.508H19.115Zm9.618,24.859V-2.508H26.359V16.374Zm-3.166-26.72a1.936,1.936,0,0,0,1.979,1.979,1.936,1.936,0,0,0,1.979-1.979,1.936,1.936,0,0,0-1.979-1.979A1.936,1.936,0,0,0,25.567-10.346Zm6.016,21.772c.356,2.494,2.691,5.463,7.322,5.463,4.2,0,6.57-2.771,6.57-5.581,0-2.731-1.781-4.513-4.908-5.225L37.56,5.409c-1.939-.435-2.969-1.385-2.969-3.008,0-1.979,1.9-3.325,4.037-3.325a4.318,4.318,0,0,1,4.671,3.6l2.1-.792c-.515-2.256-2.375-4.869-6.768-4.869-3.444,0-6.373,2.494-6.373,5.542,0,2.731,1.86,4.394,4.631,5.027l3.048.713c2.019.475,3.206,1.425,3.206,3.167,0,1.979-1.86,3.365-4.2,3.365a4.844,4.844,0,0,1-5.185-4.156Zm20.9-19.911h-2.3v3.206c0,1.94-.792,2.771-2.652,2.771H46.11V-.37h4V11.267c0,3.444,1.9,5.3,4.948,5.3a6.236,6.236,0,0,0,2.335-.356v-2.1a4.648,4.648,0,0,1-1.7.317c-2.137,0-3.206-1.108-3.206-3.4V-.37H57.39V-2.508H52.482Zm5.66,19.911c.356,2.494,2.691,5.463,7.322,5.463,4.2,0,6.57-2.771,6.57-5.581,0-2.731-1.781-4.513-4.908-5.225l-3.008-.673C62.179,4.974,61.15,4.023,61.15,2.4c0-1.979,1.9-3.325,4.037-3.325a4.318,4.318,0,0,1,4.671,3.6l2.1-.792c-.515-2.256-2.375-4.869-6.768-4.869-3.444,0-6.373,2.494-6.373,5.542,0,2.731,1.86,4.394,4.631,5.027l3.048.713c2.019.475,3.206,1.425,3.206,3.167,0,1.979-1.86,3.365-4.2,3.365a4.844,4.844,0,0,1-5.185-4.156Z" transform="translate(1054.781 641.252)" fill="#f49b23"/>
    <path id="Path_546" data-name="Path 546" d="M21.245,13.316h2.439L13.391-12.112H10.666L.374,13.316H2.813l3.12-7.854H18.089ZM11.993-9.853,17.264,3.381H6.757Z" transform="translate(1031.592 644.309)" fill="#f49b23"/>
    <path id="Path_547" data-name="Path 547" d="M18.833-8.9a4.475,4.475,0,0,0-1.464-.2A6.014,6.014,0,0,0,11.55-5.342V-8.865H9.215V10.017H11.59V-.236c0-4.315,2.375-6.373,5.581-6.373a6.593,6.593,0,0,1,1.662.2Zm.871.04v0Z" transform="translate(1046.711 647.609)" fill="#f49b23"/>
  </g>
</svg>
